<svg xmlns="http://www.w3.org/2000/svg" xmlns:xlink="http://www.w3.org/1999/xlink" style="margin:auto;background:repeat;display:block;shape-rendering:auto" width="200" height="200" viewBox="0 0 100 100" preserveAspectRatio="xMidYMid"><g><animateTransform attributeName="transform" type="rotate" values="360 50 50;0 50 50" keyTimes="0;1" dur="1.6949152542372883s" repeatCount="indefinite" calcMode="spline" keySplines="0.5 0 0.5 1" begin="-.16949152542372883s"/><circle cx="50" cy="50" r="39.891" stroke="#e3e2f0" stroke-width="14.4" fill="none" stroke-dasharray="0 300"><animate attributeName="stroke-dasharray" values="15 300;55.1413599195142 300;15 300" keyTimes="0;0.5;1" dur="1.6949152542372883s" repeatCount="indefinite" calcMode="linear" keySplines="0 0.4 0.6 1;0.4 0 1 0.6" begin="-.07796610169491526s"/></circle><circle cx="50" cy="50" r="39.891" stroke="#f0f3f2" stroke-width="7.2" fill="none" stroke-dasharray="0 300"><animate attributeName="stroke-dasharray" values="15 300;55.1413599195142 300;15 300" keyTimes="0;0.5;1" dur="1.6949152542372883s" repeatCount="indefinite" calcMode="linear" keySplines="0 0.4 0.6 1;0.4 0 1 0.6" begin="-.07796610169491526s"/></circle><circle cx="50" cy="50" r="32.771" stroke="#7b787c" stroke-width="1" fill="none" stroke-dasharray="0 300"><animate attributeName="stroke-dasharray" values="15 300;45.299378454348094 300;15 300" keyTimes="0;0.5;1" dur="1.6949152542372883s" repeatCount="indefinite" calcMode="linear" keySplines="0 0.4 0.6 1;0.4 0 1 0.6" begin="-.07796610169491526s"/></circle><circle cx="50" cy="50" r="47.171" stroke="#7b787c" stroke-width="1" fill="none" stroke-dasharray="0 300"><animate attributeName="stroke-dasharray" values="15 300;66.03388996804073 300;15 300" keyTimes="0;0.5;1" dur="1.6949152542372883s" repeatCount="indefinite" calcMode="linear" keySplines="0 0.4 0.6 1;0.4 0 1 0.6" begin="-.07796610169491526s"/></circle></g><g><animateTransform attributeName="transform" type="rotate" values="360 50 50;0 50 50" keyTimes="0;1" dur="1.6949152542372883s" repeatCount="indefinite" calcMode="spline" keySplines="0.5 0 0.5 1"/><path fill="#e3e2f0" stroke="#7b787c" d="M97.2 50c0 6.1-1.2 12.2-3.5 17.8l-13.3-5.4c1.6-3.9 2.4-8.2 2.4-12.4"/><path fill="#f0f3f2" transform="translate(0,-0.1)" d="M93.6 50c0 1.2.0 2.4-.1 3.6L93 57.2c-.4 2-2.3 3.3-4.2 2.8l-.2-.1c-1.8-.5-3.1-2.3-2.7-3.9l.4-3c.1-1 .1-2 .1-3"/><path fill="#e3e2f0" stroke="#7b787c" d="M85.4 62.5c-.2.7-.5 1.4-.8 2.1-.3.7-.6 1.4-.9 2-.6 1.1-2 1.4-3.2.8v0c-1.1-.7-1.7-2-1.2-2.9.3-.6.5-1.2.8-1.8.2-.6.6-1.2.7-1.8"/><path fill="#e3e2f0" stroke="#7b787c" d="M94.5 65.7c-.3.9-.7 1.7-1 2.6-.4.8-.7 1.7-1.1 2.5-.7 1.4-2.3 1.9-3.4 1.3-1.1-.7-1.5-2.2-.9-3.4.4-.8.7-1.5 1-2.3s.7-1.5.9-2.3"/><path fill="#e3e2f0" stroke="#7b787c" d="M85.6 67c0 .8.1 1.6.3 2.4.6-.5 1.1-1 1.4-1.7.2-.7.2-1.5-.1-2.2C86.5 64 85.6 66.3 85.6 67z"/></g><g><animateTransform attributeName="transform" type="rotate" values="360 50 50;0 50 50" keyTimes="0;1" dur="1.6949152542372883s" repeatCount="indefinite" calcMode="spline" keySplines="0.5 0 0.5 1" begin="-.16949152542372883s"/><path fill="#f0f3f2" stroke="#7b787c" d="M91 33.6l-10 4c-.4-1.2-1.1-2.4-1.7-3.5-.2-.5.3-1.1.9-1C83.6 32.9 87.4 32.9 91 33.6z"/><path fill="#f0f3f2" stroke="#7b787c" d="M83.2 36.7l10-4c-.6-1.7-1.5-3.3-2.3-4.9-.3-.7-1.2-.6-1.4.1C87.6 31.1 85.7 34 83.2 36.7z"/><path fill="#e3e2f0" stroke="#7b787c" transform="translate(0,0.2)" d="M82.8 50c0-3.4-.5-6.8-1.5-10-.2-.8-.4-1.5-.3-2.3.1-.8.4-1.6.7-2.4.7-1.5 1.9-3.1 3.7-4 1.8-.9 3.7-1 5.6-.3.9.4 1.7 1 2.4 1.8.7.8 1.3 1.7 1.7 2.8 1.5 4.6 2.2 9.5 2.2 14.4"/><path fill="#f0f3f2" transform="translate(0,0.3)" d="M86.4 50v-.9l-.1-.9-.1-1.9c0-.9.2-1.7.7-2.3.5-.7 1.3-1.2 2.3-1.4h.3c.9-.2 1.9.0 2.6.6.7.5 1.3 1.4 1.4 2.4l.2 2.2.1 1.1V50"/><path fill="#7b787c" d="M88.6 36.6c.1.3-.2.7-.6.8-.5.2-.9.0-1.1-.3-.1-.3.2-.7.6-.8C88 36.1 88.5 36.2 88.6 36.6z"/><path fill="none" stroke="#7b787c" d="M86 38.7c.2.6.8.9 1.4.7.6-.2.9-.9.6-2.1.3 1.2 1 1.7 1.6 1.5s.9-.8.8-1.4"/><path fill="#e3e2f0" stroke="#7b787c" d="M86.8 42.2l.4 2.2c.1.4.1.7.2 1.1l.1 1.1c.1 1.2-.9 2.3-2.2 2.3h0c-1.3.0-2.5-.8-2.5-1.9l-.1-1c0-.3-.1-.6-.2-1l-.3-1.9"/><path fill="#e3e2f0" stroke="#7b787c" d="M96.2 40.2l.5 2.7c.1.5.2.9.2 1.4l.1 1.4c.1 1.5-.9 2.8-2.2 2.8s-2.5-1.1-2.6-2.4l-.1-1.2c0-.4-.1-.8-.2-1.2l-.4-2.5"/><path fill="none" stroke="#7b787c" d="M90.9 36.4c1.1-1.1 2.7-1.6 4.3-1.9"/><path fill="none" stroke="#7b787c" d="M91.6 37.5c1.3-.5 2.8-.8 4.2-.7"/><path fill="none" stroke="#7b787c" d="M91.7 38.8c.2-.1.4-.1.7-.1 1.2-.1 2.5.0 3.8.3"/><path fill="none" stroke="#7b787c" d="M85 38.4c-1.6-.1-3.1.6-4.6 1.2"/><path fill="none" stroke="#7b787c" d="M85 39.5c-1.4.3-2.8.9-4 1.6"/><path fill="none" stroke="#7b787c" d="M85.5 40.4c-.2.0-.4.1-.7.2-1.1.5-2.2 1.1-3.2 1.8"/><path fill="#ff7bac" d="M92.8 34.2c.1.3-.3.8-.9 1-.6.2-1.2.1-1.4-.2-.1-.3.3-.8.9-1C92.1 33.8 92.7 33.9 92.8 34.2z"/><path fill="#ff7bac" d="M82.2 38.2c.1.3.7.3 1.3.1.6-.2 1-.6.9-.9s-.7-.3-1.3-.1C82.5 37.5 82 37.9 82.2 38.2z"/><path fill="#7b787c" d="M90 35.7 89.3 36l-.3-.7c-.3-.9.1-1.9.9-2.3l.7-.3.3.7C91.3 34.4 90.9 35.4 90 35.7z"/><path fill="#7b787c" d="M85.3 37.4l.7-.2-.2-.6c-.3-.8-1.3-1.2-2.1-.8L82.9 36l.2.6C83.5 37.4 84.4 37.7 85.3 37.4z"/></g></svg>