<?xml version="1.0" standalone="no"?>
<!DOCTYPE svg PUBLIC "-//W3C//DTD SVG 20010904//EN"
 "http://www.w3.org/TR/2001/REC-SVG-20010904/DTD/svg10.dtd">
<svg version="1.0" xmlns="http://www.w3.org/2000/svg"
 width="512.000000pt" height="512.000000pt" viewBox="0 0 512.000000 512.000000"
 preserveAspectRatio="xMidYMid meet">
<metadata>
Created by potrace 1.14, written by Peter Selinger 2001-2017
</metadata>
<g transform="translate(0.000000,512.000000) scale(0.100000,-0.100000)"
fill="#000000" stroke="none">
<path d="M3215 5106 c-11 -7 -36 -17 -55 -21 -19 -4 -51 -16 -70 -25 -19 -10
-46 -23 -60 -30 -14 -6 -36 -17 -50 -25 -32 -19 -130 -19 -200 -1 -102 27
-211 36 -416 36 -202 0 -383 -13 -415 -30 -9 -5 -52 -12 -95 -16 -44 -3 -104
-15 -134 -25 -30 -11 -66 -19 -81 -19 -14 0 -52 -9 -85 -21 -32 -11 -77 -24
-99 -28 -22 -4 -54 -15 -72 -24 -18 -9 -40 -17 -50 -17 -10 0 -40 -11 -68 -25
-27 -13 -56 -25 -63 -25 -8 0 -26 -8 -40 -19 -15 -10 -38 -22 -52 -26 -14 -4
-32 -13 -40 -20 -8 -7 -31 -20 -50 -29 -19 -9 -58 -29 -87 -45 -67 -36 -201
-49 -276 -26 -26 8 -76 19 -110 25 -34 7 -88 20 -119 31 -32 10 -73 19 -91 19
-19 0 -51 7 -71 15 -39 17 -244 47 -258 39 -4 -3 -7 -114 -6 -247 l2 -242 6
180 5 180 24 -3 c14 -1 27 -5 30 -8 3 -3 5 -55 5 -115 -1 -91 -5 -115 -24
-151 l-22 -43 22 20 c44 39 54 74 54 183 1 98 2 103 21 97 89 -25 350 -92 435
-111 58 -13 128 -30 155 -38 41 -12 68 -14 132 -6 93 10 149 35 254 111 146
106 420 199 784 266 142 26 165 27 440 27 306 -1 364 -7 610 -64 50 -11 101
-23 115 -26 69 -16 293 -90 377 -125 206 -86 430 -214 557 -317 151 -123 489
-553 586 -744 79 -155 396 -533 518 -617 l32 -22 0 99 c0 86 -3 101 -20 117
-11 10 -20 24 -20 31 0 13 -77 74 -94 74 -27 1 -133 118 -192 212 -46 72 -63
104 -134 244 -64 124 -66 131 -51 154 9 13 19 56 23 97 5 40 11 106 16 146 13
126 -23 518 -52 565 -3 5 -10 42 -16 81 -6 40 -17 85 -25 101 -8 16 -15 39
-15 52 0 13 -11 46 -25 73 -13 28 -25 59 -25 71 0 45 8 44 -640 44 -505 0
-619 -2 -635 -14z m960 -6 c-105 -4 -201 -10 -213 -14 -21 -7 -32 -36 -13 -36
4 0 25 -25 44 -55 20 -30 48 -62 62 -71 14 -9 25 -22 23 -29 -4 -16 -271 -295
-282 -295 -5 0 -37 18 -71 39 -144 91 -489 249 -550 252 l-20 0 20 9 c11 5
103 29 205 55 188 47 270 70 440 124 94 30 97 30 320 29 l225 -1 -190 -7z
m240 -242 c4 -24 13 -55 21 -69 36 -70 56 -470 34 -656 -16 -127 -21 -136 -55
-102 l-26 26 16 57 c13 43 15 79 11 139 -18 253 -26 331 -46 412 -26 106 -38
183 -32 190 3 3 16 5 29 5 16 0 23 6 23 20 0 37 18 21 25 -22z m-206 -32 c7
-8 11 -43 9 -89 l-3 -74 42 -41 c55 -54 70 -105 47 -162 -16 -40 -16 -42 10
-99 14 -32 26 -73 26 -90 0 -34 -24 -101 -36 -101 -4 0 -64 55 -133 123 -69
67 -171 156 -226 197 -55 40 -102 75 -104 76 -2 2 52 61 119 131 120 126 124
128 174 134 28 3 54 6 57 7 4 1 12 -4 18 -12z"/>
<path d="M3040 4195 c0 -2 5 -16 11 -32 56 -140 123 -363 156 -513 21 -96 24
-416 5 -545 -31 -210 -122 -519 -166 -563 -12 -12 -16 -6 -26 44 -11 55 -34
134 -111 379 -18 55 -57 156 -87 225 -30 69 -61 140 -69 159 -8 18 -16 31 -19
29 -2 -3 3 -22 12 -44 16 -38 23 -67 77 -329 29 -141 70 -449 65 -496 l-3 -33
-71 75 c-107 110 -173 192 -251 309 -63 93 -133 218 -133 236 0 3 12 3 27 -1
l27 -6 -19 22 c-11 12 -34 28 -51 35 -25 10 -35 25 -51 71 -93 262 -113 327
-113 365 -1 42 -1 42 -15 18 -7 -14 -17 -47 -20 -75 -8 -62 -57 -257 -87 -349
-22 -68 -24 -70 -73 -89 -57 -23 -230 -134 -260 -167 -17 -19 -11 -18 35 9 52
30 177 92 227 112 l22 8 -20 -52 c-55 -140 -104 -237 -119 -237 -8 0 -74 25
-145 56 -188 82 -281 114 -344 120 l-56 6 4 75 c2 54 0 74 -8 69 -6 -4 -11
-24 -11 -44 0 -20 -6 -66 -14 -102 -9 -45 -12 -104 -8 -189 4 -108 8 -127 26
-145 l20 -20 -38 -11 c-93 -26 -95 -114 -5 -161 23 -11 27 -22 33 -76 18 -162
69 -362 131 -513 206 -499 453 -820 702 -912 40 -15 73 -31 73 -34 0 -18 -224
-41 -291 -30 -124 21 -283 111 -423 242 -64 59 -73 66 -56 37 11 -20 43 -61
71 -93 28 -32 58 -69 67 -84 36 -56 124 -176 164 -224 110 -130 135 -158 226
-244 l97 -93 -55 16 c-90 26 -153 52 -256 104 -53 28 -103 50 -111 50 -26 0
-206 90 -281 142 -231 156 -435 366 -555 569 -92 156 -181 390 -203 534 -3 22
-12 60 -20 85 -15 50 -29 183 -49 480 l-14 195 4 -240 c2 -159 0 -247 -7 -259
-6 -11 -24 -72 -39 -137 -36 -150 -73 -226 -155 -322 -92 -107 -99 -105 -60
20 39 123 54 209 59 333 5 122 -4 198 -15 130 -18 -107 -111 -264 -238 -405
-40 -44 -83 -93 -95 -110 -26 -35 -40 -105 -22 -105 12 0 -12 -20 -25 -20 -4
0 -9 21 -11 48 -2 26 -4 -4 -5 -65 -2 -109 -1 -113 19 -113 12 0 35 11 51 25
40 34 61 20 52 -35 -4 -25 0 -58 13 -97 19 -55 20 -66 7 -243 -8 -101 -18
-211 -24 -245 -12 -75 -38 -207 -51 -260 -6 -22 -17 -67 -25 -100 -8 -33 -20
-73 -26 -90 -7 -16 -14 -85 -16 -152 l-3 -123 63 0 64 0 32 118 c59 217 73
299 107 662 8 85 16 202 17 260 0 58 3 93 5 77 3 -17 10 -27 21 -27 37 0 219
127 320 224 43 42 54 48 62 36 40 -62 230 -433 238 -465 6 -22 16 -93 23 -157
20 -186 0 -338 -77 -582 -40 -127 -39 -126 -16 -127 11 -1 9 -4 -8 -9 -14 -5
60 -8 176 -9 154 -1 201 2 201 12 0 6 5 39 12 71 22 119 11 361 -28 616 -6 36
-11 76 -10 90 l0 25 22 -26 c12 -15 49 -48 82 -74 33 -26 98 -84 145 -130 47
-45 108 -101 137 -124 29 -23 72 -72 97 -109 48 -73 126 -227 126 -250 0 -31
33 -82 54 -83 19 -1 19 -2 -4 -9 -14 -5 73 -8 204 -9 213 -1 228 0 221 17 -19
50 -16 67 24 113 l40 46 79 -2 c91 -2 152 -26 242 -94 30 -23 65 -44 77 -47
33 -9 28 -22 -9 -27 -18 -2 5 -4 52 -4 47 0 75 2 63 4 -13 2 -23 8 -23 13 0
16 69 62 81 54 7 -4 9 -3 6 3 -4 6 0 14 9 17 35 14 166 37 182 32 9 -2 30 -7
45 -10 15 -4 25 -11 22 -16 -3 -6 1 -7 9 -4 17 7 76 -49 76 -71 0 -8 -10 -16
-22 -18 -13 -2 85 -5 218 -6 l241 -1 -28 113 c-30 119 -35 179 -19 221 24 63
72 2 150 -188 38 -93 60 -120 81 -99 20 20 -4 79 -62 158 -28 39 -67 98 -86
132 l-35 63 17 50 c9 27 14 54 11 59 -9 14 4 41 20 41 26 0 164 -143 230 -236
72 -103 81 -113 91 -88 12 31 -31 89 -174 232 -129 129 -143 146 -143 177 0
47 14 46 119 -11 135 -73 249 -171 306 -263 15 -24 44 -62 65 -85 30 -32 45
-63 71 -146 18 -58 32 -111 32 -117 0 -9 20 -13 64 -13 l65 0 -7 30 c-4 17
-17 57 -30 90 -13 33 -26 93 -30 133 l-7 75 60 50 c62 51 156 150 224 235 21
27 38 45 39 40 0 -4 2 -82 3 -173 4 -172 27 -322 66 -421 11 -26 16 -50 13
-53 -4 -3 48 -6 115 -6 122 0 122 0 122 24 0 13 -7 26 -15 30 -14 5 -35 39
-71 116 -9 19 -23 43 -31 52 -8 9 -21 60 -29 115 -7 54 -18 113 -24 132 -5 19
-10 113 -11 209 0 162 1 177 20 203 12 16 21 33 21 40 0 6 9 28 19 48 35 66
94 221 113 296 5 22 18 69 29 105 10 36 23 97 28 135 5 39 15 91 21 117 8 31
10 144 8 345 -3 250 -7 308 -22 363 -18 64 -18 64 3 81 20 16 21 25 19 191 -2
161 -2 165 -7 63 -7 -123 -21 -102 -21 30 l0 73 -42 21 c-24 11 -56 23 -73 27
-65 15 -82 33 -161 164 -43 71 -81 130 -85 130 -4 0 11 -42 33 -92 100 -230
163 -476 188 -743 15 -157 12 -534 -4 -639 -8 -50 -20 -129 -26 -176 -32 -241
-83 -383 -254 -706 -32 -60 -151 -214 -166 -214 -6 0 -1 18 10 41 25 48 81
264 74 282 -2 7 13 38 35 68 79 110 131 244 131 335 0 75 -28 203 -96 449 -15
55 -37 440 -32 570 l3 80 28 -52 c40 -77 50 -65 15 19 -17 40 -42 113 -55 163
-15 52 -34 100 -48 115 -12 14 -42 63 -66 109 -47 92 -179 286 -268 394 -31
38 -65 80 -75 94 -19 25 -19 25 0 16 10 -6 40 -15 65 -21 26 -7 55 -14 65 -17
11 -4 -1 5 -26 19 -25 14 -63 30 -84 37 -22 6 -50 18 -63 26 -37 24 -170 188
-198 243 -14 27 -46 74 -71 106 -35 42 -53 78 -75 148 -28 89 -65 164 -75 153
-3 -3 1 -16 9 -29 24 -36 75 -215 87 -303 6 -44 14 -152 17 -240 5 -135 2
-182 -16 -303 -13 -78 -31 -171 -41 -206 -32 -114 -133 -377 -141 -369 -4 4
-15 58 -24 118 -9 61 -20 135 -25 165 -4 30 -16 118 -25 195 -10 77 -24 154
-31 170 l-14 30 6 -30 c31 -150 -14 -407 -110 -625 -46 -107 -231 -310 -281
-310 -3 0 -5 14 -5 30 0 25 -15 104 -45 247 -4 18 16 45 95 130 124 134 181
216 221 324 44 121 59 212 59 367 0 176 -29 335 -92 517 -43 124 -134 281
-194 336 -28 25 -104 72 -104 64z m927 -978 c38 -21 308 -283 380 -369 39 -46
91 -115 116 -154 l45 -71 -46 -6 c-26 -4 -63 -9 -82 -13 -32 -5 -37 -3 -48 20
-25 55 -92 26 -176 -76 -29 -36 -63 -66 -85 -75 -68 -28 -216 -93 -240 -106
-13 -6 -29 -29 -36 -50 -7 -21 -21 -47 -30 -57 -16 -17 -15 -19 3 -29 11 -6
23 -7 27 -3 4 4 5 -18 2 -48 -6 -49 -11 -208 -8 -251 1 -9 12 -21 26 -27 33
-15 33 -50 0 -77 -26 -20 -26 -20 -10 -67 11 -31 33 -62 65 -92 l49 -46 93 0
c109 0 184 23 236 73 55 52 69 85 76 172 3 44 10 116 15 160 6 44 10 137 10
207 1 109 3 127 16 122 8 -4 15 -2 15 3 0 5 12 10 28 11 20 1 23 -1 12 -7 -12
-9 -12 -12 3 -29 12 -13 17 -38 19 -83 1 -62 1 -63 8 -19 l7 45 2 -45 c2 -54
10 -90 21 -90 5 0 23 36 41 80 18 44 37 80 42 80 6 0 7 -44 2 -117 -4 -65 -7
-125 -7 -133 3 -73 22 -295 27 -326 4 -22 18 -94 31 -160 43 -219 30 -344 -56
-520 -37 -77 -61 -112 -100 -147 -55 -50 -178 -133 -280 -189 l-65 -36 -55 34
c-82 51 -140 44 -140 -18 0 -15 -3 -28 -7 -28 -3 0 -36 12 -71 26 -67 26 -118
28 -147 4 -7 -6 -18 -30 -24 -55 -6 -24 -15 -47 -21 -50 -5 -3 -10 -17 -10
-29 0 -56 -63 -84 -275 -124 -148 -28 -410 -45 -495 -32 -212 33 -280 54 -377
116 -62 39 -203 170 -203 188 0 6 20 24 45 39 50 32 58 59 24 88 -21 18 -21
18 17 37 l37 19 -52 26 c-280 141 -440 291 -638 597 -69 107 -193 367 -193
405 0 7 8 16 18 19 10 4 28 24 40 45 12 21 29 44 38 52 14 12 15 8 9 -33 -9
-58 10 -149 42 -209 14 -25 53 -74 87 -108 l63 -63 -5 51 -5 51 37 0 c30 0 36
3 37 23 1 12 9 -16 18 -63 15 -74 20 -85 37 -82 73 13 86 13 99 2 19 -16 19
-74 1 -89 -8 -7 -27 -11 -42 -9 -15 2 -29 -2 -31 -9 -6 -17 116 -148 149 -161
41 -16 278 4 358 30 150 48 150 49 150 290 -1 101 -5 202 -9 226 -7 33 -5 42
5 42 8 0 14 7 14 15 0 8 17 19 43 25 87 23 83 22 67 11 -9 -6 -10 -11 -3 -11
21 0 43 12 37 21 -3 5 4 9 15 9 12 0 21 5 21 11 0 5 5 7 12 3 7 -4 8 -3 4 5
-5 7 5 17 28 26 35 15 56 40 56 68 0 17 -75 58 -149 82 -52 17 -94 17 -173 -1
-20 -5 -29 -1 -37 14 -9 18 -6 26 25 55 30 28 35 37 26 53 -6 11 -22 26 -35
33 -22 12 -40 10 -139 -14 -130 -31 -181 -53 -186 -77 -5 -24 52 -51 99 -46
l39 4 -33 -34 c-28 -28 -47 -36 -108 -48 -111 -21 -364 -36 -438 -26 -67 10
-121 3 -146 -18 -32 -27 -13 11 42 81 86 112 150 209 241 369 76 133 229 432
260 506 15 37 42 48 71 27 20 -14 111 -121 159 -187 12 -17 69 -78 125 -136
57 -58 131 -139 164 -180 79 -98 188 -202 238 -227 59 -31 72 -50 79 -123 10
-98 13 -100 88 -60 47 25 59 28 46 13 -20 -22 -23 -43 -7 -43 6 0 50 19 97 43
71 34 105 60 184 137 l97 95 11 -57 c6 -32 15 -58 19 -58 4 0 15 17 24 38 90
211 144 329 164 359 81 119 162 369 163 501 0 55 3 58 37 39z m-2510 -476
c100 -61 302 -153 347 -158 25 -3 46 -9 46 -13 0 -5 -15 -40 -34 -79 -27 -57
-36 -68 -45 -57 -17 21 -90 54 -219 100 l-113 41 -4 79 c-3 55 -9 84 -21 97
-24 27 -12 24 43 -10z m-80 -58 c-3 -10 -5 -2 -5 17 0 19 2 27 5 18 2 -10 2
-26 0 -35z m256 -412 c20 -7 37 -17 37 -22 0 -14 -63 -111 -82 -126 -12 -11
-16 -5 -27 40 -8 29 -24 78 -36 109 l-23 58 46 -24 c26 -13 64 -29 85 -35z
m2834 17 c-3 -8 -6 -5 -6 6 -1 11 2 17 5 13 3 -3 4 -12 1 -19z m-273 -22 c40
-17 76 -61 76 -94 0 -31 -58 -88 -100 -97 -21 -5 -40 -1 -63 12 -39 23 -57 56
-57 106 0 73 65 106 144 73z m-1724 -342 c58 -35 79 -120 40 -162 -15 -16 -32
-22 -64 -22 -50 0 -150 41 -160 65 -9 25 -7 64 4 85 25 47 126 66 180 34z
m-577 -73 c11 -11 -2 -41 -18 -41 -8 0 -23 11 -33 25 -12 15 -23 21 -27 15 -3
-5 -1 -10 4 -10 6 0 11 -8 11 -17 -1 -16 -2 -16 -15 1 -28 37 -19 49 28 42 23
-4 46 -11 50 -15z m2175 -1256 c38 -47 79 -105 92 -128 21 -38 16 -34 -56 39
-43 44 -94 89 -111 99 -33 19 -38 30 -27 59 12 31 34 15 102 -69z m300 -266
c-3 -8 -7 -3 -11 10 -4 17 -3 21 5 13 5 -5 8 -16 6 -23z m-1073 -9 c16 -7 13
-9 -17 -9 -20 -1 -40 4 -43 9 -7 12 32 12 60 0z m152 -26 c-3 -3 -12 -4 -19
-1 -8 3 -5 6 6 6 11 1 17 -2 13 -5z m-206 -91 c13 -16 12 -17 -3 -4 -17 13
-22 21 -14 21 2 0 10 -8 17 -17z"/>
<path d="M3974 2594 c-23 -13 -61 -41 -84 -62 -37 -33 -42 -42 -36 -65 9 -38
40 -35 123 10 94 50 123 73 123 98 0 50 -58 59 -126 19z"/>
<path d="M2760 1930 c0 -5 11 -10 25 -10 14 0 25 5 25 10 0 6 -11 10 -25 10
-14 0 -25 -4 -25 -10z"/>
<path d="M2842 1820 c0 -14 2 -19 5 -12 2 6 2 18 0 25 -3 6 -5 1 -5 -13z"/>
<path d="M2728 1793 c6 -2 18 -2 25 0 6 3 1 5 -13 5 -14 0 -19 -2 -12 -5z"/>
<path d="M3785 1130 c-35 -37 -87 -48 -197 -42 -84 4 -87 4 -172 -38 -107 -51
-204 -80 -275 -80 -45 0 -59 5 -88 30 -42 38 -56 38 -42 3 15 -39 28 -52 68
-69 80 -34 196 -3 344 92 l58 37 72 -16 c122 -29 183 -21 232 30 33 34 49 69
36 78 -5 2 -20 -9 -36 -25z"/>
<path d="M0 4076 c0 -14 4 -25 8 -23 10 3 201 -189 266 -268 28 -33 70 -81 95
-108 34 -35 43 -51 36 -61 -6 -7 -27 -35 -47 -62 -55 -72 -130 -233 -174 -371
-41 -129 -44 -133 -111 -133 -24 0 -36 7 -52 33 l-21 32 0 -136 c0 -104 3
-140 15 -155 19 -25 19 -110 0 -164 -12 -34 -15 -101 -15 -344 l1 -301 18 50
c10 28 23 60 28 70 6 11 18 52 28 90 9 39 27 106 40 150 52 172 85 346 85 447
0 117 93 441 162 568 23 41 56 102 74 135 35 63 44 115 20 115 -7 0 -29 24
-48 53 -60 89 -145 182 -266 289 -143 127 -142 126 -142 94z"/>
<path d="M615 927 c15 -94 0 -337 -32 -512 -14 -77 -45 -175 -105 -325 -16
-38 -17 -60 -5 -60 116 0 107 -3 123 36 9 20 27 82 41 138 23 89 26 122 27
276 1 173 -25 435 -46 470 -6 10 -7 2 -3 -23z m22 -259 c-2 -13 -4 -5 -4 17
-1 22 1 32 4 23 2 -10 2 -28 0 -40z"/>
<path d="M1495 149 c0 -121 3 -149 14 -149 11 0 13 23 8 128 -8 186 -22 200
-22 21z"/>
<path d="M483 3 c20 -2 54 -2 75 0 20 2 3 4 -38 4 -41 0 -58 -2 -37 -4z"/>
</g>
</svg>
